<svg width="36" height="24" viewBox="0 0 36 24" fill="none" xmlns="http://www.w3.org/2000/svg">
  <rect width="36" height="24" rx="4" fill="white"/>
  <path fill-rule="evenodd" clip-rule="evenodd" d="M32 16H29.4L27.3 13.5L25.2 16H17.2V8H25.5L27.3 10.5L29.2 8H31.7L28.7 12L32 16ZM27.3 12L29.4 14.2H31.1L28.7 11.5L31.1 8.8H29.5L27.3 11.2L25.2 8.8H23.5L25.9 11.5L23.5 14.2H25.1L27.3 12ZM25.9 14.2H18.1V13.1H25.5V11.9H18.1V10.8H25.5V9.6H18.1V8.8H25.9V14.2Z" fill="#006FCF"/>
  <path fill-rule="evenodd" clip-rule="evenodd" d="M16.3 16H14.1V13.9H10.1V16H7.9V10.8H10.1V12.7H14.1V10.8H16.3V16ZM6.9 16H4.7L4.3 15H1.3L0.9 16H0V10.8H0.4L3.9 10.8L6.9 16ZM3.9 13.8L2.8 11.6L1.7 13.8H3.9Z" fill="#006FCF"/>
</svg>
