<svg width="36" height="24" viewBox="0 0 36 24" fill="none" xmlns="http://www.w3.org/2000/svg">
  <rect width="36" height="24" rx="4" fill="white"/>
  <path d="M18.5 15.5C20.5 15.5 22 14 22 12C22 10 20.5 8.5 18.5 8.5C16.5 8.5 15 10 15 12C15 14 16.5 15.5 18.5 15.5Z" fill="#FF6600"/>
  <path fill-rule="evenodd" clip-rule="evenodd" d="M4 16V8H32V16H4ZM9.5 10.5C10.3 10.5 11 11.2 11 12C11 12.8 10.3 13.5 9.5 13.5C8.7 13.5 8 12.8 8 12C8 11.2 8.7 10.5 9.5 10.5ZM13 10.5H14V13.5H13V10.5ZM24 10.5H25V11H25.1C25.3 10.7 25.7 10.5 26.1 10.5C27.2 10.5 28 11.3 28 12C28 12.7 27.2 13.5 26.1 13.5C25.7 13.5 25.3 13.3 25.1 13H25V13.5H24V10.5ZM26 12.5C26.3 12.5 26.5 12.3 26.5 12C26.5 11.7 26.3 11.5 26 11.5C25.7 11.5 25.5 11.7 25.5 12C25.5 12.3 25.7 12.5 26 12.5Z" fill="#231F20"/>
</svg>
