<svg width="36" height="24" viewBox="0 0 36 24" fill="none" xmlns="http://www.w3.org/2000/svg">
  <rect width="36" height="24" rx="4" fill="white"/>
  <path d="M21.1 12C21.1 14.7614 18.8614 17 16.1 17C13.3386 17 11.1 14.7614 11.1 12C11.1 9.23858 13.3386 7 16.1 7C18.8614 7 21.1 9.23858 21.1 12Z" fill="#EB001B"/>
  <path d="M24.9 12C24.9 14.7614 22.6614 17 19.9 17C17.1386 17 14.9 14.7614 14.9 12C14.9 9.23858 17.1386 7 19.9 7C22.6614 7 24.9 9.23858 24.9 12Z" fill="#F79E1B"/>
  <path fill-rule="evenodd" clip-rule="evenodd" d="M18 15.3286C19.2634 14.3068 20 12.7394 20 11C20 9.26063 19.2634 7.69318 18 6.67139C16.7366 7.69318 16 9.26063 16 11C16 12.7394 16.7366 14.3068 18 15.3286Z" fill="#FF5F00"/>
</svg>
