<svg width="36" height="24" viewBox="0 0 36 24" fill="none" xmlns="http://www.w3.org/2000/svg">
  <rect width="36" height="24" rx="4" fill="white"/>
  <path fill-rule="evenodd" clip-rule="evenodd" d="M10.9 15.6H9.2L8 8.4H9.7L10.9 15.6ZM16.4 8.6C16.1 8.5 15.6 8.4 15 8.4C13.4 8.4 12.3 9.2 12.3 10.4C12.3 11.3 13.1 11.8 13.7 12.1C14.3 12.4 14.5 12.6 14.5 12.9C14.5 13.3 14 13.5 13.6 13.5C13 13.5 12.7 13.4 12.2 13.2L12 13.1L11.8 14.5C12.2 14.7 12.9 14.8 13.6 14.8C15.3 14.8 16.4 14 16.4 12.7C16.4 11.9 15.9 11.3 15 10.9C14.4 10.6 14.1 10.4 14.1 10.1C14.1 9.8 14.4 9.5 15 9.5C15.5 9.5 15.9 9.6 16.2 9.7L16.4 9.8L16.6 8.5L16.4 8.6ZM21.9 8.4H20.5C20.1 8.4 19.8 8.5 19.6 8.9L17 15.6H18.7L19.1 14.4H21.4L21.6 15.6H23.1L21.9 8.4ZM19.6 13.1C19.7 12.8 20.4 11 20.4 11C20.4 11 20.6 10.5 20.7 10.2L20.8 10.9C20.8 10.9 21.2 12.8 21.3 13.1H19.6ZM26.9 8.4L25.4 8.4L23.7 15.6H25.4L27.1 8.4H26.9Z" fill="#1434CB"/>
</svg>
